<?xml version="1.0" encoding="utf-8"?>
<!-- Generator: Adobe Illustrator 28.2.0, SVG Export Plug-In . SVG Version: 6.00 Build 0)  -->
<svg version="1.1" id="Calque_1" xmlns="http://www.w3.org/2000/svg" xmlns:xlink="http://www.w3.org/1999/xlink" x="0px" y="0px"
	 viewBox="0 0 1920 1080" style="enable-background:new 0 0 1920 1080;" xml:space="preserve">
<g>
	<path d="M508.1,210.4c-161.2,0-292.3,131.1-292.3,292.3s131.2,292.4,292.3,292.4c161.2,0,292.4-131.2,292.4-292.4
		S669.3,210.4,508.1,210.4z M317.7,697.5c0,0,28.6-155.9,135.2-197.6c-36.9-19.8-62.1-58.8-62.1-103.7
		c0-64.7,52.7-117.6,117.3-117.6c64.9,0,117.6,52.9,117.6,117.6c0,45-25.3,84-62.4,103.8c105.1,41.9,128.4,197.5,128.4,197.5H317.7z
		"/>
	<path d="M1942.2,0H-22.2v1080H313C187,909.5,47.1,673.3,56.9,475.5c13.2-268.8,168.6-411.7,449.5-413h3.7
		c280.8,1.3,436.2,144.1,449.4,413c9.8,196.5-130.6,433.4-256.8,604.5h1239.4V0z"/>
</g>
</svg>
