<svg version="1.1" id="Calque_1" xmlns="http://www.w3.org/2000/svg" xmlns:xlink="http://www.w3.org/1999/xlink" x="0px" y="0px"
	 viewBox="0 0 41.9 12.9" style="enable-background:new 0 0 41.9 12.9;" xml:space="preserve">
<!-- <style type="text/css">
	.st0{fill:#958443;}
</style> -->
<g>
	<path class="st0" d="M40.4,6.5c0,0.6-0.4,1-1,1H1.6c-0.6,0-1-0.4-1-1c0-0.6,0.4-1,1-1h37.8C39.9,5.5,40.4,5.9,40.4,6.5z"/>
	<path class="st0" d="M40.8,6.5L35,11.9c-0.4,0.4-1,0.4-1.4-0.1c-0.4-0.4-0.4-1,0.1-1.4l4.3-4l-4.3-4c-0.4-0.4-0.4-1-0.1-1.4
		c0.4-0.4,1-0.4,1.4-0.1L40.8,6.5z"/>
</g>
</svg>