<?xml version="1.0" encoding="UTF-8"?>
<svg id="Calque_1" data-name="Calque 1" xmlns="http://www.w3.org/2000/svg" version="1.1" viewBox="0 0 40.5 47.7">
  <defs>
    <style>
      .cls-1 {
        fill: #1d1d1b;
        stroke-width: 0px;
      }
    </style>
  </defs>
  <path class="cls-1" d="M3.8,8.5c6.4,1.9,12.7,4.3,19,6.6s6.1,2.3,9.1,3.6,1.9.8,2.8,1.2.6.3.9.4.2.1.3.2c.4.1,0,.2,0,0h0c-.3-.5-.3-1,0-1.6,0,0,0,0,0,0,0,0,.2-.1,0,0s-.6.4-1,.6c-1,.6-2.1,1.2-3.1,1.7-3.1,1.6-6.2,3.2-9.3,4.8s-6.7,3.3-10,4.9-2.7,1.4-4.1,1.9-.8.3-1.3.5-.9.1-1.1.3.3.4.3.4c0,0,0,0-.1-.3-.3-1.3-.3-2.7-.4-4,0-2,0-4.1,0-6.1,0-4.6.2-9.1.2-13.7s-2.5-1.6-2.5,0c0,4.5,0,8.9-.2,13.4s-.3,7.1.3,10.5.5,2,1.5,2.3c1.6.5,3.7-.7,5.1-1.3,3.4-1.5,6.6-3.2,9.9-4.8s7.2-3.6,10.8-5.4,4.4-2.1,6.3-3.5,1.2-1.5.4-2.3-1.2-.7-1.8-1c-2.6-1.2-5.2-2.2-7.9-3.2-7.7-3-15.5-6-23.4-8.3s-2.2,2-.7,2.4h0Z"/>
</svg>