<?xml version="1.0" encoding="UTF-8"?>
<svg id="Calque_1" data-name="Calque 1" xmlns="http://www.w3.org/2000/svg" version="1.1" viewBox="0 0 1920 1080">
  <defs>
    <style>
      .cls-1 {
        fill: #3f5068;
        stroke-width: 0px;
      }
    </style>
  </defs>
  <path class="cls-1" d="M1868.8,977.1c0,0,0-.1,0-.2v-1.6c0,0,0,0-.1,0-.4-5.7-.4-10.7-.3-16,0-3.8,0-7.8,0-12.2-.2-5.6-.6-10.6-1-15.4-.4-4.9-.8-10-1-15.8-.2-7.8-.3-15.6-.4-23.1-.1-10.2-.2-20.8-.7-31.7-1.4-31.3-1.3-64.6-1.2-96.8,0-8,0-16,0-24.1,0-35.7.6-70.4,1.2-104.1.6-33.7,1.2-68.6,1.2-104.4v-115.8c0-6.1,0-12.7-.1-19.7-.1-13.6-.3-27.7,0-39.2.2-5.2.6-8.8,1-12.3.4-3.4.8-6.8,1-11.7.2-6.3.1-14.2,0-21.8,0-3.9,0-7.7,0-11,0-35.3.1-70.9.3-105.3.1-31.8.3-64.7.3-97.3h-2c-12.9.5-23.7.5-35,.4-7.7,0-15.7,0-24.7,0-11.5.2-21.7.6-31.6,1-10.2.4-20.7.8-32.5,1-16.1.2-32.1.3-47.6.4-21,.1-42.7.2-65.2.7-64.6,1.4-133.2,1.3-199.5,1.2-16.5,0-33.1,0-49.6,0-73.5,0-145.2-.6-214.5-1.2-69.4-.6-141.2-1.2-215.1-1.2h-238.6c-12.5,0-26.1,0-40.6.1-28.1.1-57.2.3-80.8,0-10.9-.2-18.3-.6-25.5-1-6.9-.4-14-.8-24-1-12.9-.2-29.2-.1-44.9,0-8,0-15.8,0-22.6,0-72.7,0-146-.1-216.9-.3-65-.1-132.2-.3-198.9-.3h0s-2,0-2,0c0,32.6-.2,65.5-.3,97.3-.2,34.4-.3,70-.3,105.3,0,3.3,0,7.1,0,11,0,7.6.2,15.5,0,21.8-.2,4.8-.5,8.1-.9,11.5-.4,3.5-.8,7.2-1,12.5-.4,11.5-.2,25.6,0,39.3,0,7,.1,13.7.1,19.7v115.8c0,35.8-.6,70.7-1.2,104.4-.6,33.6-1.2,68.4-1.2,104.1s0,16.1,0,24.1c0,32.2-.2,65.5,1.2,96.9.5,10.9.6,21.4.7,31.6,0,7.5.2,15.3.4,23.1.2,5.8.6,10.9,1,15.9.4,4.8.8,9.7,1,15.3.1,4.3,0,8.3,0,12.1,0,5.8-.1,11.4.4,17.9h.4s0,0,0,0c67.3,0,135,.2,200.5.3,70.9.2,144.2.3,216.9.3,6.9,0,14.6,0,22.7,0,15.7,0,32-.2,44.9,0,9.9.2,16.7.5,23.9.9,7.2.4,14.7.8,25.6,1,23.7.4,52.8.2,80.9,0,14.5,0,28.2-.1,40.6-.1h238.6c73.8,0,145.6.6,215,1.2,69.3.6,141,1.2,214.5,1.2s33.1,0,49.6,0c16.1,0,32.3,0,48.5,0,50.8,0,102.1-.2,151-1.3,22.4-.5,44.1-.6,65.2-.7,15.5,0,31.5-.2,47.6-.4,11.9-.2,22.4-.6,32.6-1,9.9-.4,20.1-.8,31.6-1,8.9-.1,17.1-.1,24.9,0,12,0,23.3.1,36.8-.4v-.2s0,0,0,0ZM1832.1,975.8c-7.9,0-16,0-25,0-11.5.2-21.7.6-31.6,1-10.2.4-20.6.8-32.5,1-16.1.2-32.1.3-47.6.4-21,.1-42.8.2-65.2.7-64.6,1.4-133.2,1.3-199.5,1.2-16.5,0-33.1,0-49.6,0-73.5,0-145.2-.6-214.5-1.2-69.4-.6-141.2-1.2-215.1-1.2h-238.6c-12.5,0-26.1,0-40.6.1-28.1.1-57.2.3-80.8,0-10.9-.2-18.3-.6-25.5-1-6.9-.4-14-.8-24-1-12.9-.2-29.2-.1-44.9,0-8,0-15.8,0-22.7,0-72.7,0-146-.1-216.9-.3-65-.1-132.3-.3-199.1-.3-.4-5.7-.4-10.7-.3-16,0-3.8,0-7.8,0-12.1-.2-5.6-.6-10.6-1-15.4-.4-4.9-.8-10-1-15.8-.2-7.8-.3-15.6-.4-23.1-.1-10.2-.2-20.8-.7-31.7-1.4-31.3-1.3-64.6-1.2-96.8,0-8,0-16,0-24.1,0-35.7.6-70.4,1.2-104.1.6-33.7,1.2-68.6,1.2-104.4v-115.8c0-6.1,0-12.7-.1-19.7-.1-13.6-.3-27.7,0-39.2.2-5.2.6-8.8,1-12.3.4-3.4.8-6.8,1-11.7.2-6.3.1-14.2,0-21.8,0-3.9,0-7.7,0-11,0-35.3.1-70.9.3-105.3.1-31.2.3-63.4.3-95.3,66.7,0,133.9.2,198.9.3,70.9.2,144.2.3,216.9.3,6.9,0,14.6,0,22.6,0,15.7,0,32-.2,44.9,0,9.9.2,16.7.5,23.9.9,7.2.4,14.7.8,25.6,1,23.7.4,52.8.2,80.9,0,14.5,0,28.2-.1,40.6-.1h238.6c73.8,0,145.6.6,215,1.2,69.3.6,141,1.2,214.5,1.2s33.1,0,49.6,0c16.1,0,32.3,0,48.5,0,50.8,0,102.1-.2,151-1.3,22.4-.5,44.1-.6,65.1-.7,15.5,0,31.5-.2,47.6-.4,11.9-.2,22.4-.6,32.6-1,9.9-.4,20.1-.8,31.6-1,8.9-.1,16.9-.1,24.6,0,11.4,0,22.2.1,35-.4,0,32-.2,64.2-.3,95.3-.2,34.4-.3,70-.3,105.3,0,3.3,0,7.1,0,11,0,7.6.2,15.5,0,21.7-.2,4.8-.5,8.1-.9,11.5-.4,3.5-.8,7.2-1,12.5-.4,11.5-.2,25.6,0,39.3,0,7,.1,13.7.1,19.7v115.8c0,35.8-.6,70.7-1.2,104.4-.6,33.6-1.2,68.4-1.2,104.1s0,16.1,0,24.1c0,32.2-.2,65.5,1.2,96.9.5,10.9.6,21.4.7,31.6,0,7.5.2,15.3.4,23.1.2,5.8.6,10.9,1,15.9.4,4.8.8,9.7,1,15.3.1,4.3,0,8.3,0,12.1,0,5.3,0,10.3.3,16.1-12.5.5-23.3.4-34.6.4Z"/>
</svg>