<?xml version="1.0" encoding="UTF-8"?><svg id="a" xmlns="http://www.w3.org/2000/svg" viewBox="0 0 50 50"><g id="b"><path d="M30.97,17.82c1.39,1.93,1.18,4.59-.51,6.27,1.68-1.68,4.34-1.89,6.27-.5,2.82-2.39,5.55-7.15,7-12.78-5.61,1.47-10.38,4.19-12.76,7.01Z" fill="#fff"/><path d="M34.3,24.14c-.38,2.35-2.41,4.08-4.79,4.08,2.38,0,4.4,1.73,4.79,4.08,3.68,.31,9-1.14,14-4.08-5.03-2.94-10.32-4.38-14-4.08Z" fill="#fff"/><path d="M32.18,30.97c-1.93,1.39-4.59,1.18-6.27-.51,1.69,1.68,1.9,4.34,.51,6.27,2.38,2.82,7.14,5.55,12.78,7-1.48-5.61-4.2-10.38-7.02-12.76Z" fill="#fff"/><path d="M21.79,29.5c0,2.38-1.73,4.4-4.08,4.79-.31,3.68,1.13,9,4.08,14,2.94-5,4.38-10.32,4.07-14-2.35-.38-4.07-2.41-4.07-4.79Z" fill="#fff"/><path d="M19.03,32.18c-1.39-1.93-1.18-4.59,.5-6.27-1.68,1.69-4.34,1.9-6.27,.51-2.82,2.38-5.54,7.14-7,12.78,5.62-1.48,10.38-4.2,12.77-7.02Z" fill="#fff"/><path d="M15.7,25.86c.38-2.35,2.41-4.08,4.79-4.07-2.38,0-4.41-1.73-4.79-4.08-3.68-.31-9,1.13-14,4.08,5.03,2.94,10.32,4.38,14,4.07Z" fill="#fff"/><path d="M17.82,19.03c1.93-1.39,4.59-1.18,6.27,.5-1.69-1.68-1.91-4.34-.52-6.27-2.39-2.82-7.15-5.54-12.78-7,1.49,5.62,4.21,10.38,7.03,12.77Z" fill="#fff"/><path d="M28.22,20.5c0-2.38,1.73-4.41,4.08-4.79,.31-3.68-1.14-9-4.08-14-2.94,5-4.38,10.32-4.08,14,2.35,.37,4.08,2.41,4.08,4.79Z" fill="#fff"/></g></svg>